REM DIRINDEX 1\3,1\2\4,1\2\5,1\2\6
REM DIRNAME cjc137,folder01,folder02,folder03,folder04,folder05
TITLE ""
FILE "054.mp3" MP3
  TRACK 01 AUDIO
    TITLE "0:"
    INDEX 01 00:00:00
  TRACK 02 AUDIO
    TITLE "4:cjc137_2224"
    INDEX 01 00:00:03
  TRACK 03 AUDIO
    TITLE "0:"
    INDEX 01 00:01:36
  TRACK 04 AUDIO
    TITLE "6:cjc137_2225"
    INDEX 01 00:01:44
  TRACK 05 AUDIO
    TITLE "0:"
    INDEX 01 00:02:63
  TRACK 06 AUDIO
    TITLE "5:cjc137_2226"
    INDEX 01 00:03:00
  TRACK 07 AUDIO
    TITLE "0:"
    INDEX 01 00:04:31
  TRACK 08 AUDIO
    TITLE "4:cjc137_2227"
    INDEX 01 00:05:42
  TRACK 09 AUDIO
    TITLE "0:"
    INDEX 01 00:06:45
  TRACK 10 AUDIO
    TITLE "6:cjc137_2228"
    INDEX 01 00:06:53
  TRACK 11 AUDIO
    TITLE "0:"
    INDEX 01 00:07:70
  TRACK 12 AUDIO
    TITLE "5:cjc137_2229"
    INDEX 01 00:08:03
  TRACK 13 AUDIO
    TITLE "0:"
    INDEX 01 00:09:06
  TRACK 14 AUDIO
    TITLE "4:cjc137_2230"
    INDEX 01 00:10:16
  TRACK 15 AUDIO
    TITLE "0:"
    INDEX 01 00:11:29
  TRACK 16 AUDIO
    TITLE "6:cjc137_2231"
    INDEX 01 00:11:35
  TRACK 17 AUDIO
    TITLE "0:"
    INDEX 01 00:12:54
  TRACK 18 AUDIO
    TITLE "5:cjc137_2232"
    INDEX 01 00:12:61
  TRACK 19 AUDIO
    TITLE "0:"
    INDEX 01 00:13:73
  TRACK 20 AUDIO
    TITLE "4:cjc137_2233"
    INDEX 01 00:15:07
  TRACK 21 AUDIO
    TITLE "0:"
    INDEX 01 00:16:28
  TRACK 22 AUDIO
    TITLE "6:cjc137_2234"
    INDEX 01 00:16:34
  TRACK 23 AUDIO
    TITLE "0:"
    INDEX 01 00:17:27
  TRACK 24 AUDIO
    TITLE "5:cjc137_2235"
    INDEX 01 00:17:33
  TRACK 25 AUDIO
    TITLE "0:"
    INDEX 01 00:18:54
  TRACK 26 AUDIO
    TITLE "4:cjc137_2236"
    INDEX 01 00:19:60
  TRACK 27 AUDIO
    TITLE "0:"
    INDEX 01 00:20:67
  TRACK 28 AUDIO
    TITLE "6:cjc137_2237"
    INDEX 01 00:21:06
  TRACK 29 AUDIO
    TITLE "0:"
    INDEX 01 00:22:15
  TRACK 30 AUDIO
    TITLE "5:cjc137_2238"
    INDEX 01 00:22:25
  TRACK 31 AUDIO
    TITLE "0:"
    INDEX 01 00:23:32
  TRACK 32 AUDIO
    TITLE "4:cjc137_2239"
    INDEX 01 00:24:43
  TRACK 33 AUDIO
    TITLE "0:"
    INDEX 01 00:25:54
  TRACK 34 AUDIO
    TITLE "6:cjc137_2240"
    INDEX 01 00:25:62
  TRACK 35 AUDIO
    TITLE "0:"
    INDEX 01 00:26:62
  TRACK 36 AUDIO
    TITLE "5:cjc137_2241"
    INDEX 01 00:26:71
  TRACK 37 AUDIO
    TITLE "0:"
    INDEX 01 00:28:06
  TRACK 38 AUDIO
    TITLE "4:cjc137_2242"
    INDEX 01 00:29:17
  TRACK 39 AUDIO
    TITLE "0:"
    INDEX 01 00:30:30
  TRACK 40 AUDIO
    TITLE "6:cjc137_2243"
    INDEX 01 00:30:38
  TRACK 41 AUDIO
    TITLE "0:"
    INDEX 01 00:31:35
  TRACK 42 AUDIO
    TITLE "5:cjc137_2244"
    INDEX 01 00:31:43
  TRACK 43 AUDIO
    TITLE "0:"
    INDEX 01 00:32:58
  TRACK 44 AUDIO
    TITLE "4:cjc137_2245"
    INDEX 01 00:33:66
  TRACK 45 AUDIO
    TITLE "0:"
    INDEX 01 00:34:73
  TRACK 46 AUDIO
    TITLE "6:cjc137_2246"
    INDEX 01 00:35:06
  TRACK 47 AUDIO
    TITLE "0:"
    INDEX 01 00:35:68
  TRACK 48 AUDIO
    TITLE "5:cjc137_2247"
    INDEX 01 00:36:01
  TRACK 49 AUDIO
    TITLE "0:"
    INDEX 01 00:37:05
  TRACK 50 AUDIO
    TITLE "4:cjc137_2248"
    INDEX 01 00:38:16
  TRACK 51 AUDIO
    TITLE "0:"
    INDEX 01 00:39:29
  TRACK 52 AUDIO
    TITLE "6:cjc137_2249"
    INDEX 01 00:39:35
  TRACK 53 AUDIO
    TITLE "0:"
    INDEX 01 00:40:32
  TRACK 54 AUDIO
    TITLE "5:cjc137_2250"
    INDEX 01 00:40:36
  TRACK 55 AUDIO
    TITLE "0:"
    INDEX 01 00:41:49
  TRACK 56 AUDIO
    TITLE "4:cjc137_2251"
    INDEX 01 00:42:57
  TRACK 57 AUDIO
    TITLE "0:"
    INDEX 01 00:43:64
  TRACK 58 AUDIO
    TITLE "6:cjc137_2252"
    INDEX 01 00:43:72
  TRACK 59 AUDIO
    TITLE "0:"
    INDEX 01 00:44:58
  TRACK 60 AUDIO
    TITLE "5:cjc137_2253"
    INDEX 01 00:44:67
  TRACK 61 AUDIO
    TITLE "0:"
    INDEX 01 00:45:73
  TRACK 62 AUDIO
    TITLE "4:cjc137_2254"
    INDEX 01 00:47:11
  TRACK 63 AUDIO
    TITLE "0:"
    INDEX 01 00:48:28
  TRACK 64 AUDIO
    TITLE "6:cjc137_2255"
    INDEX 01 00:48:34
  TRACK 65 AUDIO
    TITLE "0:"
    INDEX 01 00:49:65
  TRACK 66 AUDIO
    TITLE "5:cjc137_2256"
    INDEX 01 00:50:01
  TRACK 67 AUDIO
    TITLE "0:"
    INDEX 01 00:51:18
  TRACK 68 AUDIO
    TITLE "4:cjc137_2257"
    INDEX 01 00:52:26
  TRACK 69 AUDIO
    TITLE "0:"
    INDEX 01 00:53:53
  TRACK 70 AUDIO
    TITLE "6:cjc137_2258"
    INDEX 01 00:53:60
  TRACK 71 AUDIO
    TITLE "0:"
    INDEX 01 00:54:70
  TRACK 72 AUDIO
    TITLE "5:cjc137_2259"
    INDEX 01 00:55:03
  TRACK 73 AUDIO
    TITLE "0:"
    INDEX 01 00:56:31
  TRACK 74 AUDIO
    TITLE "4:cjc137_2260"
    INDEX 01 00:57:39
  TRACK 75 AUDIO
    TITLE "0:"
    INDEX 01 00:58:58
  TRACK 76 AUDIO
    TITLE "6:cjc137_2261"
    INDEX 01 00:58:66
  TRACK 77 AUDIO
    TITLE "0:"
    INDEX 01 01:00:15
  TRACK 78 AUDIO
    TITLE "5:cjc137_2262"
    INDEX 01 01:00:23
  TRACK 79 AUDIO
    TITLE "0:"
    INDEX 01 01:01:42
  TRACK 80 AUDIO
    TITLE "4:cjc137_2263"
    INDEX 01 01:02:52
  TRACK 81 AUDIO
    TITLE "0:"
    INDEX 01 01:03:57
  TRACK 82 AUDIO
    TITLE "6:cjc137_2264"
    INDEX 01 01:03:65
  TRACK 83 AUDIO
    TITLE "0:"
    INDEX 01 01:05:13
  TRACK 84 AUDIO
    TITLE "5:cjc137_2265"
    INDEX 01 01:05:19
  TRACK 85 AUDIO
    TITLE "0:"
    INDEX 01 01:06:24
